<?xml version="1.0" encoding="utf-8"?>
<!-- Generator: Adobe Illustrator 21.0.0, SVG Export Plug-In . SVG Version: 6.00 Build 0)  -->
<svg version="1.1" xmlns="http://www.w3.org/2000/svg" xmlns:xlink="http://www.w3.org/1999/xlink" x="0px" y="0px"
	 viewBox="0 0 311.8 311.8" style="enable-background:new 0 0 311.8 311.8;" xml:space="preserve">
<style type="text/css">
	.st0{fill:#A3195B;}
	.st1{fill:#FEFDFE;}
	.st2{fill:#3A2A50;}
	.st3{fill:#3A2B50;}
	.st4{fill:#312783;}
</style>
<g id="Lag_2">
	<g id="XMLID_29_">
		<path class="st0" d="M190.7,84.9c-7,10.6-13.9,21.1-20.9,31.6l-23.5,3.7c1.2-1.8,2.3-3.6,3.5-5.5c-8.6,0.4-16.8,0.8-25.2,1.2
			c21.2-28.9,42.1-57.4,63-86c0.1,0.1,0.3,0.1,0.4,0.2c-7.8,19-15.7,38.1-23.7,57.4C173.1,86.7,181.7,85.9,190.7,84.9z"/>
		<path class="st0" d="M162.8,199.9c-15.6,27.4-31,54.7-46.4,81.9c-0.1,0-0.2,0-0.3,0c5.3-18.6,10.6-37.1,16-56
			c-5.2,2.2-10.2,4.3-15.5,6.5c5.3-10.4,10.4-20.7,15.6-31l15.2-2.8c-0.9,1.7-1.8,3.4-2.7,5.1C150.8,202.4,156.7,201.2,162.8,199.9z
			"/>
	</g>
</g>
<g id="Lag_3">
	<g id="XMLID_7_">
		<g>
			<path class="st1" d="M37.1,131.2c15.2-2.7,30.4-5.4,45.6-8c-3,7.9-5.9,15.9-8.9,23.8c-15.2,2.7-30.4,5.4-45.6,8
				C31.2,147.1,34.1,139.1,37.1,131.2z M30.7,152.5c0.1,0,0.2,0,0.2,0c1.3-0.2,2.5-0.5,3.8-0.7c0.3,0,0.4-0.2,0.6-0.5
				c0.9-1.2,1.7-2.4,2.6-3.6c0.3-0.4,0.5-0.5,0.8-0.6c3.2-0.6,6.4-1.1,9.6-1.7c0.2,0,0.3-0.1,0.5-0.1c0-0.1,0-0.1,0-0.2
				c-0.1-1.1-0.2-2.2-0.2-3.4c0-0.2-0.2-0.2-0.4-0.1c-2.1,0.4-4.3,0.8-6.4,1.1c-0.2,0-0.3,0.1-0.6,0.1c3.1-4.4,6.1-8.7,9.1-13
				c-0.1,0-0.1,0-0.1,0c-1.3,0.2-2.6,0.4-3.9,0.7c-0.1,0-0.3,0.2-0.4,0.3c-0.8,1.2-1.6,2.3-2.4,3.5c-3.4,4.8-6.8,9.6-10.1,14.4
				C32.4,150,31.5,151.2,30.7,152.5z M64.6,138.7c4-0.7,7.9-1.4,11.9-2.1c0.5-1.4,1-2.7,1.5-4.1c-2.6,0.5-5.1,0.9-7.7,1.4
				c0.5-1.3,1-2.6,1.5-3.9c2.6-0.5,5.1-0.9,7.7-1.4c0.5-1.4,1-2.8,1.6-4.2c-4,0.7-7.9,1.4-11.9,2.1
				C67.6,130.6,66.1,134.7,64.6,138.7z M52.9,147c-0.2,0.5-0.4,1-0.6,1.5c-0.1,0.3,0,0.4,0.2,0.3c0.9-0.3,1.7-0.5,2.6-0.9
				c3.6-1.6,6.5-5.5,6.1-8.3c-0.1-1-0.7-1.7-1.4-2.2c-0.8-0.6-1.6-1.1-2.3-1.8c-0.5-0.4-1-0.8-1.3-1.3c-0.4-0.5,0-1.3,0.9-1.9
				c0.3-0.2,0.7-0.4,1.1-0.5c0.3-0.1,0.4-0.1,0.6-0.5c0.3-0.9,0.7-1.9,1.1-2.8c0.1-0.3,0.1-0.4-0.2-0.3c-1.5,0.3-2.9,0.9-4.4,2.1
				c-1.7,1.4-2.9,3-3.3,4.7c-0.2,1.1,0,2,0.6,2.6c0.9,0.9,2,1.7,2.9,2.6c0.6,0.5,1.1,1,1.5,1.6c0.4,0.6-0.1,1.6-1.1,2.4
				c-0.6,0.5-1.3,0.8-1.9,0.9c-0.3,0-0.4,0.1-0.5,0.4C53.3,146,53.1,146.5,52.9,147z M74.9,140.8c-0.1,0-0.2,0-0.3,0
				c-3.7,0.7-7.4,1.3-11.1,2c-0.3,0.1-0.4,0.2-0.6,0.5c-0.4,1.2-0.9,2.3-1.3,3.5c0,0.1-0.1,0.2-0.1,0.3c4-0.7,7.9-1.4,11.8-2.1
				C73.9,143.6,74.4,142.2,74.9,140.8z"/>
			<path class="st2" d="M30.7,152.5c0.9-1.3,1.7-2.5,2.6-3.7c3.4-4.8,6.8-9.6,10.1-14.4c0.8-1.2,1.6-2.3,2.4-3.5
				c0.1-0.1,0.3-0.3,0.4-0.3c1.3-0.2,2.6-0.5,3.9-0.7c0,0,0.1,0,0.1,0c-3,4.3-6,8.6-9.1,13c0.3,0,0.4-0.1,0.6-0.1
				c2.1-0.4,4.3-0.8,6.4-1.1c0.2,0,0.4-0.1,0.4,0.1c0.1,1.1,0.2,2.2,0.2,3.4c0,0,0,0.1,0,0.2c-0.2,0-0.3,0.1-0.5,0.1
				c-3.2,0.6-6.4,1.1-9.6,1.7c-0.4,0.1-0.6,0.2-0.8,0.6c-0.8,1.2-1.7,2.4-2.6,3.6c-0.2,0.2-0.3,0.4-0.6,0.5
				c-1.3,0.2-2.5,0.4-3.8,0.7C30.8,152.5,30.8,152.5,30.7,152.5z"/>
			<path class="st2" d="M64.6,138.7c1.5-4.1,3-8.1,4.6-12.2c4-0.7,7.9-1.4,11.9-2.1c-0.5,1.4-1,2.7-1.6,4.2
				c-2.6,0.5-5.1,0.9-7.7,1.4c-0.5,1.3-1,2.6-1.5,3.9c2.5-0.4,5.1-0.9,7.7-1.4c-0.5,1.4-1,2.7-1.5,4.1
				C72.5,137.3,68.6,138,64.6,138.7z"/>
			<path class="st2" d="M52.9,147c0.2-0.5,0.4-0.9,0.5-1.4c0.1-0.3,0.2-0.4,0.5-0.4c0.6-0.1,1.3-0.4,1.9-0.9c1-0.8,1.5-1.8,1.1-2.4
				c-0.4-0.6-1-1.1-1.5-1.6c-1-0.9-2-1.6-2.9-2.6c-0.6-0.6-0.8-1.5-0.6-2.6c0.3-1.7,1.5-3.3,3.3-4.7c1.5-1.2,2.9-1.8,4.4-2.1
				c0.3-0.1,0.3,0,0.2,0.3c-0.4,1-0.7,1.9-1.1,2.8c-0.1,0.3-0.3,0.4-0.6,0.5c-0.3,0.1-0.7,0.3-1.1,0.5c-0.9,0.6-1.3,1.4-0.9,1.9
				c0.4,0.5,0.9,0.9,1.3,1.3c0.7,0.6,1.6,1.2,2.3,1.8c0.7,0.6,1.3,1.2,1.4,2.2c0.4,2.8-2.5,6.7-6.1,8.3c-0.9,0.4-1.7,0.6-2.6,0.9
				c-0.3,0.1-0.4,0-0.2-0.3C52.6,148,52.8,147.5,52.9,147z"/>
			<path class="st3" d="M74.9,140.8c-0.5,1.4-1,2.8-1.6,4.2c-3.9,0.7-7.9,1.4-11.8,2.1c0-0.1,0-0.2,0.1-0.3c0.4-1.2,0.9-2.3,1.3-3.5
				c0.1-0.3,0.2-0.4,0.6-0.5c3.7-0.6,7.4-1.3,11.1-2C74.7,140.8,74.8,140.8,74.9,140.8z"/>
		</g>
	</g>
	<g id="XMLID_6_">
		<path class="st2" d="M23.4,200.2c-8.6,1.5-11.5-1.8-8.4-10l6.5-1.1c-1.5,4.1-0.1,5.7,4.2,5s7.2-3.2,8.8-7.3
			c2.6-1.6,3.9-2.8,3.8-3.5l-6.5,1.1c2-2.3,1.5-3.1-1.6-2.6c-8.6,1.5-11.5-1.8-8.4-10c3-8.2,8.9-13,17.5-14.5s11.5,1.8,8.4,10
			l-6.5,1.1c1.5-4.1,0.1-5.7-4.2-5s-7.2,3.2-8.8,7.3c-1.5,4.1-0.1,5.7,4.2,5c6.1-1.1,9.3,0.3,9.6,4c0,0.8-1.1,2-3.5,3.5l6.5-1.1
			c-0.2,0.9-1.6,2.1-4.2,3.6C37.9,193.8,32,198.7,23.4,200.2z"/>
		<path class="st2" d="M50.6,184l4.4-3.6l6.5-1.1l-4.4,3.6l-4.6,12.2l-6.5,1.1L50.6,184z M59.4,176.7l-4.4,3.6l-6.5,1.1l4.4-3.6
			l2.3-6.1l-6.5,1.1l2.3-6.1l19.5-3.4l-2.3,6.1l-6.5,1.1L59.4,176.7z"/>
		<path class="st2" d="M75.6,173.8l-4.4,3.6l-6.5,1.1l4.4-3.6l4.6-12.2l6.5-1.1L75.6,173.8z M66.9,181.1l4.4-3.6l6.5-1.1l-4.4,3.6
			c-1.5,4.1-0.1,5.7,4.2,5c4.3-0.8,7.2-3.2,8.8-7.3l4.4-3.6l6.5-1.1l-4.4,3.6c-3,8.2-8.9,13-17.5,14.5
			C66.6,192.6,63.8,189.3,66.9,181.1z M95.1,170.4l-4.4,3.6l-6.5,1.1l4.4-3.6l4.6-12.2l6.5-1.1L95.1,170.4z"/>
		<path class="st2" d="M104.8,168.7l-4.4,3.6l-6.5,1.1l4.4-3.6c3-8.2,8.9-13,17.5-14.5c2.5-0.4,4.6-0.5,6.1-0.1l5-13.3l6.5-1.1
			l-9.1,24.5l-4.4,3.6l-6.5,1.1l4.4-3.6c1.5-4.1,0.1-5.7-4.2-5C109.3,162.2,106.3,164.6,104.8,168.7z M96.1,175.9l4.4-3.6l6.5-1.1
			l-4.4,3.6c-1.5,4.1-0.1,5.7,4.2,5c4.3-0.8,7.2-3.2,8.8-7.3l4.4-3.6l6.5-1.1l-4.4,3.6c-3,8.2-8.9,13-17.5,14.5S93,184.1,96.1,175.9
			z"/>
		<path class="st2" d="M125.2,170.8l4.4-3.6l6.5-1.1l-4.4,3.6c-1.5,4.1-0.1,5.7,4.2,5c4.3-0.8,7.2-3.2,8.8-7.3l4.4-3.6l6.5-1.1
			l-4.4,3.6l-4.6,12.2c-3,8.2-8.9,13-17.5,14.5l-9.7,1.7l2.3-6.1l9.7-1.7c4.3-0.8,7.2-3.2,8.8-7.3l0.4-1c-2.1,1-4.3,1.7-6.9,2.2
			C125,182.3,122.2,178.9,125.2,170.8z M134,163.5l-4.4,3.6l-6.5,1.1l4.4-3.6l4.6-12.2l6.5-1.1L134,163.5z M153.5,160.1l-4.4,3.6
			l-6.5,1.1l4.4-3.6l4.6-12.2l6.5-1.1L153.5,160.1z"/>
		<path class="st2" d="M154.4,165.6l4.4-3.6l6.5-1.1l-4.4,3.6l-4.6,12.2l-6.5,1.1L154.4,165.6z M163.2,158.4l-4.4,3.6l-6.5,1.1
			l4.4-3.6l9.1-24.5l6.5-1.1l-6.8,18.4l13-2.3l6.8-18.4l6.5-1.1l-9.1,24.5l-4.4,3.6l-6.5,1.1l4.4-3.6L163.2,158.4z M173.9,162.2
			l4.4-3.6l6.5-1.1l-4.4,3.6l-4.6,12.2l-6.5,1.1L173.9,162.2z"/>
		<path class="st2" d="M195.3,169.9l-16.2,2.9l2.3-6.1l16.2-2.9L195.3,169.9z M188,156.8l-6.5,1.1l4.4-3.6l16.2-2.9l-4.4,3.6
			l6.5-1.1l-4.4,3.6l-16.2,2.9L188,156.8z M204.4,145.4l-16.2,2.9l2.3-6.1l16.2-2.9L204.4,145.4z"/>
		<path class="st2" d="M203.1,157l4.4-3.6l6.5-1.1l-4.4,3.6l-4.6,12.2l-6.5,1.1L203.1,157z M211.9,149.8l-4.4,3.6l-6.5,1.1l4.4-3.6
			l9.1-24.5l6.5-1.1L211.9,149.8z"/>
		<path class="st2" d="M232.3,151.9l4.4-3.6l6.5-1.1l-4.4,3.6c-3,8.2-8.9,13-17.5,14.5c-2.5,0.4-4.6,0.5-6.1,0.1l-5,13.3l-6.5,1.1
			l9.1-24.5l4.4-3.6l6.5-1.1l-4.4,3.6c-1.5,4.1-0.1,5.7,4.2,5C227.8,158.4,230.8,156,232.3,151.9z M221.6,148.1l-4.4,3.6l-6.5,1.1
			l4.4-3.6c3-8.2,8.9-13,17.5-14.5c8.6-1.5,11.5,1.8,8.4,10l-4.4,3.6l-6.5,1.1l4.4-3.6c1.5-4.1,0.1-5.7-4.2-5S223.1,144,221.6,148.1
			z"/>
		<path class="st2" d="M253.7,159.5l-16.2,2.9l2.3-6.1l16.2-2.9L253.7,159.5z M246.4,146.5l-6.5,1.1l4.4-3.6l16.2-2.9l-4.4,3.6
			l6.5-1.1l-4.4,3.6l-16.2,2.9L246.4,146.5z M262.8,135.1l-16.2,2.9l2.3-6.1l16.2-2.9L262.8,135.1z"/>
		<path class="st2" d="M261.5,146.7l4.4-3.6l6.5-1.1l-4.4,3.6l-4.6,12.2l-6.5,1.1L261.5,146.7z M281.3,126.1l3.2-0.6l-2.3,6.1
			l-3.2,0.6c-4.3,0.8-7.2,3.2-8.8,7.3l-4.4,3.6l-6.5,1.1l4.4-3.6C266.8,132.4,272.6,127.6,281.3,126.1z"/>
		<path class="st2" d="M285.1,148.3l-2.3,6.1l-6.5,1.1l2.3-6.1L285.1,148.3z"/>
	</g>
	<g id="XMLID_3_">
		<line class="st2" x1="16.3" y1="217.4" x2="289.5" y2="169.8"/>
		<path d="M16.3,217.4l8.5-1.9l8.5-1.8l17-3.7l34.2-5.9l68.3-11.9l68.3-11.9l34.2-6c11.5-1.5,22.9-3.1,34.4-4.5
			c-11.3,2.6-22.6,4.9-33.9,7.4l-34.2,6l-68.3,11.9L84.9,207l-34.2,6l-17.2,2.3l-8.6,1.1L16.3,217.4z"/>
	</g>
	<g id="XMLID_1_">
		<line class="st4" x1="282" y1="102" x2="85.2" y2="134.3"/>
		<path d="M282,102c-8.1,2-16.2,3.7-24.3,5.5l-24.6,4l-49.2,8.1l-49.2,8.1l-24.6,4c-8.3,0.8-16.5,1.8-24.8,2.6
			c8.1-1.9,16.2-3.7,24.3-5.5l24.6-4l49.2-8.1l49.2-8.1l24.6-4C265.4,103.6,273.7,102.7,282,102z"/>
	</g>
	<g>
	</g>
	<g>
	</g>
	<g>
	</g>
	<g>
	</g>
	<g>
	</g>
	<g>
	</g>
</g>
</svg>
